# xmcd
#
# Track frame offsets: 
#        150
#        4031
#        19955
#        35944
#        56057
#        75212
#        94070
#        115648
#        131565
#        150084
#        169252
#        188147
#        206952
#
# Disc length: 3121 seconds
#
# Revision: 0
# Processed by: cddbd v1.5.2PL0 Copyright (c) Steve Scherf et al.
# Submitted via: ExactAudioCopy v0.99pb4
#
DISCID=a10c2f0d
DTITLE=3dirty7 - Black Veganer
DYEAR=2008
DGENRE=Ska
TTITLE0=Intro
TTITLE1=Like An Eagle
TTITLE2=In Anger
TTITLE3=Black Veganer
TTITLE4=Buch Des Lebens
TTITLE5=Sunset Surfers
TTITLE6=Stairway Breakdown
TTITLE7=Dusty Trip
TTITLE8=Guantanamo Bay
TTITLE9=Keine Panik
TTITLE10=Music Generation
TTITLE11=Tsunami
TTITLE12=Kässrin
EXTD=
EXTT0=
EXTT1=
EXTT2=
EXTT3=
EXTT4=
EXTT5=
EXTT6=
EXTT7=
EXTT8=
EXTT9=
EXTT10=
EXTT11=
EXTT12=
PLAYORDER=
